<svg xmlns="http://www.w3.org/2000/svg" viewBox="0 0 1080 1080"><defs><style>.cls-1{fill:#282a36;}.cls-2{fill:#f55;}.cls-3{fill:#50fa7b;}</style></defs><g id="Layer_8" data-name="Layer 8"><rect class="cls-1" width="1080" height="1080"/></g><g id="Layer_4" data-name="Layer 4"><path class="cls-2" d="M979.47,506c0,159-93.05,296.34-227.69,360.51-78.28,39.6-135,90.06-171.42,150.78H499.64c-36.4-60.72-93.15-111.18-171.42-150.78C193.57,802.33,100.53,665,100.53,506A397.86,397.86,0,0,1,209.84,231.54h22.48a358.63,358.63,0,0,1,25.06-33.81,380.86,380.86,0,0,1,26.41-28.52A373.64,373.64,0,0,1,540,62.72,373.6,373.6,0,0,1,796.2,169.21a381,381,0,0,1,26.42,28.52,360.38,360.38,0,0,1,25.06,33.81h22.47A397.83,397.83,0,0,1,979.47,506Z"/><polygon class="cls-3" points="838.41 480.54 813.63 619.7 544.84 949.81 535.15 949.81 266.36 619.7 241.59 480.54 306.95 604.43 474.36 701.95 539.99 634 540 634 605.64 701.95 773.05 604.43 838.41 480.54"/></g></svg>
