<?xml version="1.0" standalone="no"?>
<!DOCTYPE svg PUBLIC "-//W3C//DTD SVG 20010904//EN"
 "http://www.w3.org/TR/2001/REC-SVG-20010904/DTD/svg10.dtd">
<svg version="1.0" xmlns="http://www.w3.org/2000/svg"
 width="700.000000pt" height="700.000000pt" viewBox="0 0 700.000000 700.000000"
 preserveAspectRatio="xMidYMid meet">
<metadata>
Created by potrace 1.14, written by Peter Selinger 2001-2017
</metadata>
<g transform="translate(0.000000,700.000000) scale(0.100000,-0.100000)"
fill="#000000" stroke="none">
<path d="M3338 6995 c-2 -1 -39 -5 -82 -9 -44 -4 -82 -8 -85 -10 -3 -2 -31 -7
-61 -11 -30 -3 -75 -11 -100 -17 -25 -5 -56 -12 -70 -14 -115 -22 -362 -103
-511 -168 -446 -196 -867 -542 -1139 -937 l-45 -66 -84 0 -83 -1 -40 -44
c-180 -196 -354 -454 -472 -701 -117 -245 -220 -573 -251 -797 -3 -25 -8 -56
-10 -70 -23 -129 -33 -423 -21 -600 6 -83 17 -177 32 -272 23 -149 87 -404
124 -493 4 -11 29 -74 55 -140 47 -118 149 -324 186 -376 10 -15 19 -30 19
-33 0 -7 77 -124 122 -186 99 -136 196 -249 312 -365 252 -252 452 -393 830
-589 153 -79 259 -140 371 -214 47 -31 218 -154 225 -162 3 -3 30 -25 60 -50
125 -102 313 -290 376 -376 10 -14 31 -40 46 -57 15 -18 58 -78 95 -134 l68
-103 296 0 296 0 38 63 c76 123 187 262 319 397 254 260 508 442 896 643 357
185 574 339 811 576 235 236 405 470 548 756 72 143 74 148 127 290 209 555
242 1158 97 1745 -8 36 -33 117 -53 180 -133 404 -328 743 -619 1069 l-39 44
-83 0 -84 -1 -45 66 c-245 359 -623 684 -1031 887 -203 101 -511 206 -674 230
-22 4 -47 8 -55 10 -17 5 -46 10 -155 25 -69 11 -448 23 -457 15z"/>
</g>
</svg>
